<svg width="98" height="43" viewBox="0 0 98 43" fill="none" xmlns="http://www.w3.org/2000/svg">
<path d="M27.5799 40.3574L17.9992 16.4372L10.9157 38.6591H0V33.1014H6.84731L17.3998 0L27.4528 25.1007L36.7248 0.844562L45.5428 21.2503L40.4391 23.457L37.0427 15.5926L27.5799 40.3574Z" fill="#284D85"/>
<path d="M60.0366 41.0748C57.0559 41.0711 54.1132 40.4061 51.4205 39.1279C48.7278 37.8497 46.3521 35.9901 44.4648 33.683C42.5775 31.376 41.2255 28.679 40.5062 25.7864C39.7869 22.8938 39.7182 19.8777 40.3051 16.9554C40.8921 14.033 42.12 11.2773 43.9003 8.88678C45.6807 6.49624 47.9693 4.53044 50.601 3.13102C53.2327 1.7316 56.1422 0.933426 59.1196 0.794025C62.097 0.654624 65.0683 1.17746 67.8192 2.32486L70.7071 3.5236L68.2915 9.29932L65.3764 8.0915C63.6412 7.36638 61.777 7.00081 59.8965 7.0169C58.016 7.033 56.1583 7.43042 54.4358 8.18513C52.7133 8.93984 51.1618 10.0361 49.8752 11.4077C48.5885 12.7793 47.5936 14.3976 46.9504 16.1648C45.8007 19.4105 45.8896 22.9665 47.2002 26.1507C48.5107 29.3349 50.9506 31.9232 54.052 33.4193C55.7505 34.2245 57.5947 34.677 59.4731 34.7493C61.3515 34.8216 63.225 34.5122 64.9804 33.8399C66.7358 33.1676 68.3367 32.1464 69.6863 30.8379C71.0358 29.5293 72.106 27.9607 72.8321 26.2269L74.0399 23.339L79.8066 25.7547L78.5988 28.6334C77.5571 31.1523 76.0111 33.4315 74.0558 35.3306C72.1004 37.2297 69.7772 38.7086 67.229 39.6763C64.9366 40.5765 62.4992 41.0505 60.0366 41.0748Z" fill="#284D85"/>
<path d="M81.8861 6.12988H75.6292V42.9909H81.8861V6.12988Z" fill="#CECECE"/>
<path d="M97.1791 21.441H60.3181V27.6981H97.1791V21.441Z" fill="#CECECE"/>
<path d="M78.7532 21.441H60.3181V27.6981H75.6292V43.0001H81.8771V21.441H78.7532Z" fill="#F8008A"/>
</svg>
